<?xml version="1.0" encoding="utf-8"?>
<!-- Generated by IcoMoon.io -->
<!DOCTYPE svg PUBLIC "-//W3C//DTD SVG 1.1//EN" "http://www.w3.org/Graphics/SVG/1.1/DTD/svg11.dtd">
<svg version="1.1" xmlns="http://www.w3.org/2000/svg" xmlns:xlink="http://www.w3.org/1999/xlink" width="512" height="512" viewBox="0 0 512 512">
<g>
</g>
	<path d="M256.031 40.816c-118.661 0-215.204 96.522-215.204 215.173 0 118.641 96.543 215.194 215.204 215.194 118.63 0 215.142-96.553 215.142-215.194 0-118.651-96.512-215.173-215.143-215.173zM256.031 426.721c-94.32 0-170.762-76.442-170.762-170.732 0-94.28 76.442-170.732 170.762-170.732 94.279 0 170.711 76.452 170.711 170.732 0 94.29-76.431 170.732-170.711 170.732z" fill="#000000" />
	<path d="M184.811 169.749c-20.409 0-36.956 16.578-36.956 36.946 0 20.439 16.548 36.956 36.956 36.956 20.418 0 36.956-16.517 36.956-36.956 0-20.377-16.537-36.946-36.956-36.946z" fill="#000000" />
	<path d="M326.451 169.749c-20.398 0-36.946 16.578-36.946 36.946 0 20.439 16.548 36.956 36.946 36.956 20.418 0 36.956-16.517 36.956-36.956 0-20.377-16.538-36.946-36.956-36.946z" fill="#000000" />
</svg>
